<svg xmlns="http://www.w3.org/2000/svg" xmlns:xlink="http://www.w3.org/1999/xlink" width="512" zoomAndPan="magnify" viewBox="0 0 384 383.999986" height="512" preserveAspectRatio="xMidYMid meet" version="1.0"><path fill="#6d131e" d="M 77.601562 128.4375 C 55.441406 97.203125 45.886719 54.796875 49.398438 1.152344 C 49.398438 79.277344 79.878906 132.984375 141.035156 162.988281 C 152.148438 170.585938 169.828125 168.960938 194.132812 158.246094 C 194.980469 157.859375 195.5625 157.597656 196.605469 157.011719 C 214.542969 150 230.53125 150.84375 244.113281 159.871094 C 244.308594 160.066406 244.957031 160.519531 245.152344 160.84375 C 254.1875 168.25 263.285156 178.574219 272.125 191.757812 C 272.125 191.953125 272.320312 192.40625 272.515625 192.601562 C 272.710938 192.992188 272.90625 193.378906 273.296875 194.03125 C 279.078125 203.316406 286.097656 207.019531 294.289062 204.550781 C 296.042969 204.941406 298.835938 204.160156 302.929688 202.730469 C 306.636719 201.238281 307.675781 199.875 306.050781 198.1875 C 304.425781 196.109375 304.425781 193.640625 306.441406 190.394531 C 308.261719 187.082031 307.222656 185.847656 303.90625 186.886719 C 300.398438 188.121094 295.71875 187.277344 289.476562 184.484375 C 297.34375 179.742188 304.296875 179.160156 310.46875 183.507812 C 316.253906 187.210938 325.484375 190.71875 338.289062 193.121094 C 340.5625 193.964844 341.992188 195.785156 342.25 198.25 C 342.640625 203.1875 337.3125 205.070312 326.199219 204.421875 C 320.871094 209.355469 315.085938 213.640625 308.910156 216.953125 C 302.476562 220.460938 297.34375 225.203125 292.664062 231.761719 C 288.113281 238.125 285.058594 244.554688 284.019531 250.464844 C 276.804688 264.492188 271.019531 271.246094 266.925781 271.246094 C 257.695312 275.140625 254.96875 272.21875 259.125 263.191406 C 263.417969 268.777344 266.925781 266.246094 269.980469 256.632812 L 270.175781 253.972656 C 266.082031 243.125 260.296875 240.203125 252.042969 245.59375 C 235.792969 252.347656 187.050781 298.195312 105.289062 384.179688 C 155.984375 326.769531 195.824219 280.273438 225.332031 244.101562 C 229.878906 224.550781 219.15625 209.617188 192.183594 199.875 C 150.914062 191.367188 112.632812 167.535156 77.601562 128.4375 " fill-opacity="1" fill-rule="nonzero"/></svg>